<svg width="19" height="12" viewBox="0 0 19 12" fill="none" xmlns="http://www.w3.org/2000/svg">
<path fill-rule="evenodd" clip-rule="evenodd" d="M18.1642 1.3956C18.1642 0.807467 17.7205 0.330688 17.1732 0.330688H16.1822C15.6348 0.330688 15.1912 0.807467 15.1912 1.3956V10.6249C15.1912 11.213 15.6348 11.6898 16.1822 11.6898H17.1732C17.7205 11.6898 18.1642 11.213 18.1642 10.6249V1.3956ZM11.2574 2.60251H12.2484C12.7957 2.60251 13.2394 3.09073 13.2394 3.69298V10.5993C13.2394 11.2016 12.7957 11.6898 12.2484 11.6898H11.2574C10.7101 11.6898 10.2664 11.2016 10.2664 10.5993V3.69298C10.2664 3.09073 10.7101 2.60251 11.2574 2.60251ZM7.23292 5.06364H6.24192C5.69461 5.06364 5.25092 5.55807 5.25092 6.16799V10.5854C5.25092 11.1953 5.69461 11.6898 6.24192 11.6898H7.23292C7.78024 11.6898 8.22392 11.1953 8.22392 10.5854V6.16799C8.22392 5.55807 7.78024 5.06364 7.23292 5.06364ZM2.30817 7.33546H1.31717C0.769857 7.33546 0.326172 7.82284 0.326172 8.42404V10.6012C0.326172 11.2024 0.769857 11.6898 1.31717 11.6898H2.30817C2.85548 11.6898 3.29917 11.2024 3.29917 10.6012V8.42404C3.29917 7.82284 2.85548 7.33546 2.30817 7.33546Z" fill="white"/>
</svg>
