<svg width="17" height="12" viewBox="0 0 17 12" fill="none" xmlns="http://www.w3.org/2000/svg">
<path fill-rule="evenodd" clip-rule="evenodd" d="M8.63075 2.57465C10.9414 2.57475 13.1638 3.43142 14.8384 4.96761C14.9645 5.08621 15.1661 5.08471 15.2903 4.96425L16.4957 3.79041C16.5586 3.72932 16.5937 3.64656 16.5931 3.56046C16.5926 3.47435 16.5566 3.39199 16.4929 3.33161C12.0975 -0.73277 5.16327 -0.73277 0.767871 3.33161C0.704201 3.39195 0.668075 3.47428 0.667488 3.56039C0.666901 3.64649 0.701901 3.72927 0.764743 3.79041L1.97054 4.96425C2.09466 5.08489 2.29638 5.08639 2.42241 4.96761C4.09727 3.43132 6.31984 2.57465 8.63075 2.57465ZM8.62763 6.49555C9.88867 6.49547 11.1047 6.97091 12.0394 7.82948C12.1659 7.95133 12.365 7.94869 12.4883 7.82353L13.6842 6.59781C13.7472 6.53352 13.7822 6.4463 13.7813 6.35567C13.7804 6.26504 13.7437 6.17856 13.6794 6.11558C10.8329 3.4298 6.42476 3.4298 3.57828 6.11558C3.51398 6.17856 3.47729 6.26508 3.47645 6.35574C3.4756 6.4464 3.51067 6.53361 3.57379 6.59781L4.76941 7.82353C4.89265 7.94869 5.09181 7.95133 5.21824 7.82948C6.15237 6.97148 7.36743 6.49608 8.62763 6.49555ZM10.973 9.09093C10.9748 9.18881 10.9403 9.28317 10.8778 9.35174L8.85555 11.6323C8.79627 11.6994 8.71545 11.7371 8.63112 11.7371C8.54679 11.7371 8.46597 11.6994 8.40669 11.6323L6.38409 9.35174C6.32161 9.28312 6.28724 9.18873 6.28909 9.09085C6.29095 8.99297 6.32886 8.90029 6.39388 8.83468C7.68537 7.61399 9.57687 7.61399 10.8684 8.83468C10.9333 8.90034 10.9712 8.99306 10.973 9.09093Z" fill="white"/>
</svg>
