<svg width="85" height="30" viewBox="0 0 85 30" fill="none" xmlns="http://www.w3.org/2000/svg">
<path fill-rule="evenodd" clip-rule="evenodd" d="M29.5107 25.5055C29.4232 25.2988 29.4844 25.0624 29.6449 24.9055C32.349 22.2615 33.9942 18.7649 33.9942 14.9308C33.9942 6.68474 26.3844 0 16.9971 0C7.60987 0 0 6.68474 0 14.9308C0 23.1768 7.60987 29.8616 16.9971 29.8616C19.7585 29.8616 22.0685 29.427 24.3575 28.4084C24.4828 28.3526 24.6243 28.3428 24.7562 28.3802C27.6888 29.2118 30.4287 29.1009 32.1953 28.405C32.6521 28.225 32.5337 27.6564 32.0571 27.5384C30.8122 27.2303 30.0421 26.7617 29.5107 25.5055Z" fill="#9953F5"/>
<path d="M21.9196 6.55099C23.2654 6.45621 24.4502 7.44573 24.5659 8.7611L25.2083 15.609L25.7587 11.7532C25.9361 10.4484 27.1653 9.54562 28.5043 9.73689C29.8433 9.9282 30.785 11.1411 30.6076 12.446L29.6846 24.8711C29.6736 24.882 29.6627 24.893 29.6517 24.9038C29.4911 25.0608 29.4298 25.2994 29.5178 25.5073C30.0498 26.7628 30.8211 27.2303 32.0682 27.5378C32.5393 27.654 32.6547 28.2241 32.2027 28.4024C30.4344 29.0997 27.6905 29.2111 24.7544 28.3779C24.6264 28.3416 24.4894 28.3512 24.3677 28.4054C22.0762 29.4262 19.7643 29.8621 17.0001 29.8626C15.772 29.8629 14.5744 29.7484 13.4203 29.5314L6.92595 23.7057C6.20139 23 5.81289 21.6275 6.74913 20.5261C7.65273 19.4632 9.30388 19.5808 9.87497 20.2268L12.1457 22.3991C12.1162 21.8265 12.0545 20.6653 12.0545 20.6653L8.41146 13.4998C7.72666 12.3541 8.10214 10.7344 9.26623 10.0816C10.4303 9.4289 12.0412 9.94532 12.6269 11.1358L15.2574 15.9592L13.4117 8.9325C13.0323 7.6618 13.7756 6.34556 15.0719 5.99268C16.3682 5.63985 17.7267 6.38394 18.1061 7.65462L20.0626 14.2075L19.6926 9.10426C19.5769 7.78891 20.5739 6.64578 21.9196 6.55099Z" fill="white"/>
<rect width="1.63775" height="2.95616" rx="0.818873" transform="matrix(0.981168 -0.193155 0.188886 0.981999 21.0591 18.9628)" fill="#9953F5"/>
<rect width="1.63858" height="2.95468" rx="0.819292" transform="matrix(0.963167 -0.268905 0.26275 0.964864 16.3613 20.3126)" fill="#9953F5"/>
<path d="M50.2775 9.91C50.2775 7.726 49.1595 6.322 47.4175 6.322C45.6755 6.322 44.5835 7.726 44.5835 9.91C44.5835 12.094 45.7015 13.524 47.4175 13.524C49.1595 13.524 50.2775 12.094 50.2775 9.91ZM53.2675 9.91C53.2675 13.758 50.9535 16.254 47.4175 16.254C43.9075 16.254 41.5935 13.758 41.5935 9.91C41.5935 6.062 43.8815 3.592 47.4175 3.592C50.9535 3.592 53.2675 6.062 53.2675 9.91ZM59.2215 18.568C59.2215 19.01 58.9615 19.27 58.5455 19.27H56.9075C56.4915 19.27 56.2315 19.01 56.2315 18.568V3.956C56.2315 3.514 56.4915 3.254 56.9075 3.254H58.5455C58.9615 3.254 59.2215 3.514 59.2215 3.956V10.014C59.4035 9.676 59.7675 9.494 60.2875 9.494H61.8215C62.2635 9.494 62.4715 9.702 62.4715 10.144V11.574C62.4715 12.016 62.2635 12.224 61.8215 12.224H60.1315C59.5075 12.224 59.2215 12.484 59.2215 13.056V18.568ZM43.9855 18.958C44.0635 18.516 44.2975 18.282 44.7395 18.282H46.2995C46.7415 18.282 47.0275 18.568 46.9755 18.984C46.8975 19.608 46.8195 20.544 46.8195 21.558C46.8195 23.118 47.8335 23.95 49.4195 23.95C53.7615 23.95 56.0755 23.794 59.1435 23.508C59.5595 23.456 59.7935 23.664 59.8195 24.132L59.9235 25.562C59.9495 25.952 59.7415 26.16 59.2995 26.212C56.7255 26.472 53.5795 26.68 49.5495 26.68C45.9355 26.68 43.8295 24.86 43.8295 21.844C43.8295 20.752 43.8815 19.608 43.9855 18.958ZM65.9325 21.766C65.9325 18.49 68.7665 16.826 74.4345 16.826C80.1025 16.826 82.9365 18.49 82.9365 21.766C82.9365 25.042 80.1025 26.706 74.4345 26.706C68.7665 26.706 65.9325 25.042 65.9325 21.766ZM75.4745 14.304C73.7325 14.85 71.7565 15.188 70.1185 15.188C66.4265 15.188 64.4765 13.342 64.4765 9.832C64.4765 7.752 64.6325 6.218 65.0485 4.45C65.1525 4.008 65.3605 3.852 65.7765 3.852H67.3625C67.8565 3.852 68.1425 4.138 68.0645 4.58C67.6225 7.154 67.4665 8.506 67.4665 10.118C67.4665 11.73 68.2985 12.458 70.1185 12.458C71.2625 12.458 72.8745 12.172 74.4085 11.704V10.196C74.4085 9.754 74.6165 9.546 75.0585 9.546H78.6725C79.1925 9.546 79.3745 9.338 79.3745 8.818V7.414C79.1925 7.726 78.8285 7.934 78.3345 7.934H75.0585C74.6165 7.934 74.4085 7.726 74.4085 7.284V5.906C74.4085 5.464 74.6165 5.256 75.0585 5.256H78.6725C79.1925 5.256 79.3745 5.048 79.3745 4.528V3.956C79.3745 3.514 79.6345 3.254 80.0505 3.254H81.6885C82.1045 3.254 82.3645 3.514 82.3645 3.956V14.928C82.3645 15.37 82.1045 15.63 81.6885 15.63H80.0505C79.6345 15.63 79.3745 15.37 79.3745 14.928V11.704C79.1925 12.016 78.8285 12.224 78.3345 12.224H75.6565L76.0205 13.472C76.1245 13.862 75.9685 14.148 75.4745 14.304ZM68.9225 21.766C68.9225 23.118 70.3265 23.976 74.4345 23.976C78.5425 23.976 79.9465 23.118 79.9465 21.766C79.9465 20.414 78.5425 19.556 74.4345 19.556C70.3265 19.556 68.9225 20.414 68.9225 21.766Z" fill="white"/>
</svg>
