<svg width="28" height="28" viewBox="0 0 28 28" fill="none" xmlns="http://www.w3.org/2000/svg">
<path d="M6.9043 24.1661C5.85742 24.1661 5.08398 23.9161 4.58398 23.4161C4.08398 22.9161 3.83398 22.1427 3.83398 21.0958V18.5646C3.83398 18.3302 3.75586 18.131 3.59961 17.9669L1.80664 16.1622C1.06445 15.4279 0.693359 14.7091 0.693359 14.006C0.693359 13.3029 1.06445 12.5802 1.80664 11.838L3.59961 10.0333C3.75586 9.86926 3.83398 9.67395 3.83398 9.44739V6.90442C3.83398 5.84973 4.08398 5.07629 4.58398 4.58411C5.08398 4.08411 5.85742 3.83411 6.9043 3.83411H9.44727C9.68164 3.83411 9.87695 3.75598 10.0332 3.59973L11.8379 1.80676C12.5801 1.06457 13.3027 0.69348 14.0059 0.69348C14.709 0.685668 15.4277 1.05676 16.1621 1.80676L17.9668 3.59973C18.1309 3.75598 18.3301 3.83411 18.5645 3.83411H21.0957C22.1504 3.83411 22.9238 4.08801 23.416 4.59582C23.916 5.09582 24.166 5.86536 24.166 6.90442V9.44739C24.166 9.67395 24.248 9.86926 24.4121 10.0333L26.2051 11.838C26.9395 12.5802 27.3066 13.3029 27.3066 14.006C27.3145 14.7091 26.9473 15.4279 26.2051 16.1622L24.4121 17.9669C24.248 18.131 24.166 18.3302 24.166 18.5646V21.0958C24.166 22.1505 23.916 22.9239 23.416 23.4161C22.916 23.9161 22.1426 24.1661 21.0957 24.1661H18.5645C18.3301 24.1661 18.1309 24.2482 17.9668 24.4122L16.1621 26.2052C15.4277 26.9396 14.709 27.3068 14.0059 27.3068C13.3027 27.3146 12.5801 26.9474 11.8379 26.2052L10.0332 24.4122C9.87695 24.2482 9.68164 24.1661 9.44727 24.1661H6.9043ZM12.6934 19.7247C12.8965 19.7247 13.0801 19.6779 13.2441 19.5841C13.4082 19.4904 13.5527 19.3497 13.6777 19.1622L19.1855 10.4786C19.2559 10.3614 19.3223 10.2364 19.3848 10.1036C19.4473 9.97082 19.4785 9.83801 19.4785 9.7052C19.4785 9.43176 19.377 9.21692 19.1738 9.06067C18.9707 8.89661 18.7441 8.81457 18.4941 8.81457C18.1504 8.81457 17.8691 8.99426 17.6504 9.35364L12.6465 17.3927L10.2676 14.3224C10.1191 14.1271 9.97461 13.9943 9.83398 13.9239C9.70117 13.8536 9.54883 13.8185 9.37695 13.8185C9.11133 13.8185 8.88867 13.9161 8.70898 14.1114C8.5293 14.2989 8.43945 14.5255 8.43945 14.7911C8.43945 14.9239 8.46289 15.0568 8.50977 15.1896C8.56445 15.3146 8.63477 15.4357 8.7207 15.5529L11.6621 19.1622C11.8184 19.3654 11.9785 19.5099 12.1426 19.5958C12.3066 19.6818 12.4902 19.7247 12.6934 19.7247Z" fill="#21ED13"/>
<path d="M12.6934 19.7247C12.8965 19.7247 13.0801 19.6779 13.2441 19.5841C13.4082 19.4904 13.5527 19.3497 13.6777 19.1622L19.1855 10.4786C19.2559 10.3614 19.3223 10.2364 19.3848 10.1036C19.4473 9.97082 19.4785 9.83801 19.4785 9.7052C19.4785 9.43176 19.377 9.21692 19.1738 9.06067C18.9707 8.89661 18.7441 8.81457 18.4941 8.81457C18.1504 8.81457 17.8691 8.99426 17.6504 9.35364L12.6465 17.3927L10.2676 14.3224C10.1191 14.1271 9.97461 13.9943 9.83398 13.9239C9.70117 13.8536 9.54883 13.8185 9.37695 13.8185C9.11133 13.8185 8.88867 13.9161 8.70898 14.1114C8.5293 14.2989 8.43945 14.5255 8.43945 14.7911C8.43945 14.9239 8.46289 15.0568 8.50977 15.1896C8.56445 15.3146 8.63477 15.4357 8.7207 15.5529L11.6621 19.1622C11.8184 19.3654 11.9785 19.5099 12.1426 19.5958C12.3066 19.6818 12.4902 19.7247 12.6934 19.7247Z" fill="white"/>
</svg>
