<svg width="14" height="9" viewBox="0 0 14 9" fill="none" xmlns="http://www.w3.org/2000/svg">
<path d="M7 0.476562C7.19792 0.476562 7.375 0.552083 7.53125 0.703125L13.5781 6.89062C13.6458 6.95833 13.6979 7.03385 13.7344 7.11719C13.7708 7.20573 13.7891 7.29948 13.7891 7.39844C13.7891 7.53385 13.7578 7.65625 13.6953 7.76562C13.6328 7.875 13.5495 7.96094 13.4453 8.02344C13.3359 8.08594 13.2135 8.11719 13.0781 8.11719C12.8802 8.11719 12.7109 8.04948 12.5703 7.91406L6.58594 1.79688H7.42188L1.4375 7.91406C1.29167 8.04948 1.1224 8.11719 0.929688 8.11719C0.794271 8.11719 0.674479 8.08594 0.570312 8.02344C0.460938 7.96094 0.375 7.875 0.3125 7.76562C0.25 7.65625 0.21875 7.53385 0.21875 7.39844C0.21875 7.20573 0.289062 7.03906 0.429688 6.89844L6.47656 0.703125C6.54427 0.630208 6.625 0.572917 6.71875 0.53125C6.80729 0.494792 6.90104 0.476562 7 0.476562Z" fill="#A2A2A2"/>
</svg>
