<svg width="24" height="24" viewBox="0 0 24 24" fill="none" xmlns="http://www.w3.org/2000/svg">
<rect x="0.5" y="0.5" width="23" height="23" rx="11.5" fill="white" fill-opacity="0.2"/>
<rect x="0.5" y="0.5" width="23" height="23" rx="11.5" stroke="#A2A2A2"/>
<path d="M7.31738 18.709C7.17611 18.6042 7.08952 18.4629 7.05762 18.2852C7.03027 18.1074 7.0599 17.8955 7.14648 17.6494L8.5752 13.3975L4.9248 10.7725C4.71061 10.6221 4.5625 10.4671 4.48047 10.3076C4.39844 10.1481 4.38477 9.98405 4.43945 9.81543C4.49414 9.65137 4.60124 9.52832 4.76074 9.44629C4.92025 9.36426 5.13216 9.32552 5.39648 9.33008L9.87402 9.35742L11.2344 5.08496C11.3164 4.83431 11.4189 4.64518 11.542 4.51758C11.6696 4.38997 11.82 4.32617 11.9932 4.32617C12.1709 4.32617 12.3213 4.38997 12.4443 4.51758C12.5719 4.64518 12.6768 4.83431 12.7588 5.08496L14.1191 9.35742L18.5967 9.33008C18.861 9.32552 19.0729 9.36426 19.2324 9.44629C19.3919 9.52832 19.499 9.65137 19.5537 9.81543C19.6084 9.98405 19.5947 10.1481 19.5127 10.3076C19.4307 10.4671 19.2826 10.6221 19.0684 10.7725L15.418 13.3975L16.8467 17.6494C16.9333 17.8955 16.9606 18.1074 16.9287 18.2852C16.9014 18.4629 16.8171 18.6042 16.6758 18.709C16.5345 18.8184 16.375 18.8548 16.1973 18.8184C16.0195 18.7865 15.8258 18.6953 15.6162 18.5449L11.9932 15.8857L8.37695 18.5449C8.16732 18.6953 7.97363 18.7865 7.7959 18.8184C7.61816 18.8548 7.45866 18.8184 7.31738 18.709ZM8.30176 17.3555C8.31087 17.3691 8.33138 17.3646 8.36328 17.3418L11.6514 14.833C11.7607 14.7464 11.8747 14.7031 11.9932 14.7031C12.1162 14.7031 12.2324 14.7464 12.3418 14.833L15.6299 17.3418C15.6618 17.3646 15.6823 17.3691 15.6914 17.3555C15.696 17.3464 15.696 17.3258 15.6914 17.2939L14.3311 13.3838C14.2992 13.2972 14.2832 13.2152 14.2832 13.1377C14.2878 13.0602 14.3105 12.9896 14.3516 12.9258C14.3926 12.8574 14.4518 12.7959 14.5293 12.7412L17.9336 10.3896C17.9655 10.3714 17.9769 10.3532 17.9678 10.335C17.9632 10.3213 17.9427 10.3145 17.9062 10.3145L13.7705 10.3896C13.6292 10.3942 13.513 10.3669 13.4219 10.3076C13.3307 10.2438 13.2646 10.1413 13.2236 10L12.0342 6.04199C12.0251 6.00553 12.0114 5.9873 11.9932 5.9873C11.9795 5.9873 11.9681 6.00553 11.959 6.04199L10.7695 10C10.7285 10.1413 10.6624 10.2438 10.5713 10.3076C10.4801 10.3669 10.3639 10.3942 10.2227 10.3896L6.08691 10.3145C6.05046 10.3145 6.02995 10.3213 6.02539 10.335C6.01628 10.3532 6.02767 10.3714 6.05957 10.3896L9.46387 12.7412C9.54134 12.7959 9.60059 12.8574 9.6416 12.9258C9.68262 12.9896 9.70312 13.0602 9.70312 13.1377C9.70768 13.2152 9.69401 13.2972 9.66211 13.3838L8.30176 17.2939C8.29264 17.3258 8.29264 17.3464 8.30176 17.3555Z" fill="#A2A2A2"/>
</svg>
